<svg width="97" height="97" viewBox="0 0 97 97" fill="none" xmlns="http://www.w3.org/2000/svg">
<g clip-path="url(#clip0_21_290)">
<path d="M12.9334 40.7947C12.1734 43.7394 11.8597 46.0233 11.9948 47.6463C12.1306 49.2708 13.0254 50.3859 14.6739 50.9859C14.9833 51.0985 15.2819 51.1485 15.576 51.197C15.8325 51.349 16.0933 51.5025 16.3995 51.6139C18.0513 52.2151 19.4502 51.9349 20.6018 50.779C21.7452 49.6213 22.9762 47.6712 24.2868 44.927L33.7464 23.5044C35.5792 19.3254 36.8351 16.3031 37.5136 14.4388C38.4371 11.9016 38.49 9.67987 37.6812 7.77675C36.8621 5.87112 35.3745 4.52407 33.2007 3.73288C33.0884 3.692 32.9933 3.68607 32.8805 3.64999C32.7697 3.6047 32.6931 3.54811 32.5774 3.50603C30.4092 2.71684 28.3982 2.79054 26.551 3.72692C24.7037 4.6633 23.322 6.40017 22.3985 8.93734C21.7204 10.8006 20.7398 13.923 19.4572 18.3036L12.9334 40.7947Z" fill="#EA3C05"/>
<path d="M12.6659 59.3363C10.5659 58.572 8.53 58.5842 6.5626 59.3709C4.59211 60.1626 3.26682 61.5047 2.57784 63.3977C1.79868 65.5384 1.93586 67.4914 2.99301 69.2605C4.05056 71.0284 5.57822 72.279 7.57911 73.0073C9.61523 73.7484 11.6115 73.7903 13.5705 73.1365C15.5287 72.4812 16.9 71.071 17.6911 68.8973C18.3805 67.0032 18.239 65.1272 17.2737 63.2669C16.3067 61.4147 14.7714 60.1026 12.667 59.3367" fill="#EA3C05"/>
<path d="M50.4757 73.0979C48.3757 72.3336 46.3387 72.3454 44.3705 73.1343C42.4008 73.9239 41.0755 75.266 40.3853 77.1622C39.607 79.3008 39.7464 81.2546 40.8013 83.0228C41.8599 84.7911 43.3887 86.0422 45.3896 86.7704C47.4257 87.5115 49.4198 87.5527 51.3787 86.8989C53.337 86.2435 54.7079 84.8308 55.4975 82.6614C56.1877 80.7651 56.0495 78.8903 55.0812 77.0314C54.1132 75.1751 52.5823 73.8647 50.4779 73.0987" fill="#EA3C05"/>
<path d="M89.0491 33.8496C88.185 30.2141 86.278 26.8637 83.3759 23.8832C80.4898 20.9272 76.7264 18.5897 72.1861 16.9372C67.2968 15.1576 62.5707 14.5948 58.1481 15.271C53.7203 15.9478 49.9247 17.5019 46.8644 19.8899C43.7875 22.2892 41.6626 25.0538 40.55 28.1108C39.9556 29.7439 40.0818 31.5145 40.9172 33.3687C41.7567 35.2319 43.1702 36.5357 45.1183 37.2448C48.4439 38.4552 51.4156 37.3282 53.9617 33.9238C56.1637 31.1424 58.3358 29.2006 60.4157 28.1494C62.3724 27.1556 64.9356 27.223 68.0322 28.3501C70.7026 29.322 72.5366 30.8376 73.6456 32.9884C74.7384 35.1083 74.8803 37.2164 74.0746 39.4298C73.6937 40.5045 73.0397 41.4617 72.1771 42.2073C71.2568 43.0008 70.2316 43.6638 69.1304 44.1775C67.963 44.7228 66.0823 45.4973 63.537 46.484C60.5709 47.6367 58.1292 48.7021 56.2863 49.6538C54.3269 50.67 52.5604 52.0213 51.0669 53.6466C49.5135 55.3172 48.2291 57.5235 47.256 60.1972C46.4243 62.4822 46.4178 64.4839 47.2384 66.1456C48.0502 67.7905 49.3805 68.9631 51.1964 69.624C54.6685 70.8877 57.5413 69.7858 59.4836 66.4709C60.3495 65.1163 60.974 64.175 61.3543 63.6475C61.6995 63.1683 62.1153 62.7011 62.5942 62.2556C63.0582 61.8234 63.71 61.376 64.5282 60.9268C65.3856 60.452 66.4979 59.9315 67.8308 59.384C72.7896 57.399 76.3121 55.9375 78.2981 55.0379C80.346 54.1122 82.3081 52.816 84.1323 51.1891C86.0073 49.5257 87.4596 47.2933 88.4552 44.5579C89.7129 41.1023 89.9144 37.4993 89.0531 33.8523" fill="#EA3C05"/>
</g>
<defs>
<clipPath id="clip0_21_290">
<rect width="75" height="75" fill="white" transform="translate(25.6515) rotate(20)"/>
</clipPath>
</defs>
</svg>
