<svg width="97" height="97" viewBox="0 0 97 97" fill="none" xmlns="http://www.w3.org/2000/svg">
<g clip-path="url(#clip0_21_296)">
<path d="M83.195 40.7948C83.955 43.7394 84.2687 46.0233 84.1336 47.6463C83.9979 49.2708 83.103 50.3859 81.4545 50.9859C81.1451 51.0985 80.8465 51.1486 80.5524 51.197C80.2959 51.349 80.0351 51.5025 79.7289 51.6139C78.0771 52.2152 76.6782 51.9349 75.5266 50.779C74.3832 49.6213 73.1522 47.6713 71.8416 44.927L62.382 23.5044C60.5492 19.3254 59.2933 16.3031 58.6148 14.4388C57.6913 11.9016 57.6384 9.67987 58.4472 7.77675C59.2663 5.87112 60.7539 4.52407 62.9277 3.73288C63.04 3.692 63.1351 3.68607 63.2479 3.64999C63.3587 3.6047 63.4353 3.54811 63.551 3.50603C65.7192 2.71684 67.7302 2.79054 69.5774 3.72692C71.4247 4.6633 72.8064 6.40017 73.7299 8.93734C74.408 10.8006 75.3886 13.923 76.6712 18.3036L83.195 40.7948Z" fill="#EA3C05"/>
<path d="M83.4626 59.3362C85.5626 58.5719 87.5986 58.5841 89.566 59.3708C91.5365 60.1626 92.8617 61.5047 93.5507 63.3977C94.3299 65.5384 94.1927 67.4914 93.1356 69.2604C92.078 71.0283 90.5504 72.279 88.5495 73.0073C86.5133 73.7483 84.5171 73.7903 82.5581 73.1365C80.5999 72.4812 79.2286 71.071 78.4374 68.8972C77.748 67.0031 77.8896 65.1271 78.8549 63.2668C79.8219 61.4146 81.3571 60.1026 83.4615 59.3366" fill="#EA3C05"/>
<path d="M45.6527 73.0979C47.7527 72.3336 49.7897 72.3454 51.7579 73.1343C53.7276 73.9239 55.0529 75.266 55.7431 77.1622C56.5215 79.3008 56.3821 81.2546 55.3271 83.0228C54.2685 84.7911 52.7397 86.0422 50.7388 86.7704C48.7027 87.5115 46.7086 87.5527 44.7497 86.8989C42.7914 86.2435 41.4205 84.8308 40.6309 82.6614C39.9407 80.7651 40.0789 78.8903 41.0472 77.0314C42.0152 75.1751 43.5461 73.8647 45.6505 73.0987" fill="#EA3C05"/>
<path d="M7.07927 33.8496C7.94343 30.2141 9.85043 26.8637 12.7525 23.8832C15.6386 20.9272 19.4021 18.5897 23.9423 16.9372C28.8316 15.1576 33.5577 14.5948 37.9804 15.271C42.4082 15.9478 46.2038 17.5019 49.264 19.8899C52.3409 22.2892 54.4658 25.0538 55.5784 28.1108C56.1728 29.7439 56.0466 31.5145 55.2112 33.3687C54.3717 35.2319 52.9582 36.5357 51.0101 37.2448C47.6845 38.4552 44.7128 37.3282 42.1668 33.9238C39.9647 31.1424 37.7926 29.2006 35.7127 28.1494C33.756 27.1556 31.1928 27.223 28.0963 28.3501C25.4258 29.322 23.5918 30.8376 22.4828 32.9884C21.39 35.1083 21.2481 37.2164 22.0538 39.4298C22.4347 40.5045 23.0887 41.4617 23.9514 42.2073C24.8716 43.0008 25.8968 43.6638 26.998 44.1775C28.1655 44.7228 30.0461 45.4973 32.5914 46.484C35.5575 47.6367 37.9992 48.7021 39.8421 49.6538C41.8015 50.67 43.568 52.0213 45.0615 53.6466C46.6149 55.3172 47.8993 57.5235 48.8724 60.1972C49.7041 62.4822 49.7106 64.4839 48.89 66.1457C48.0782 67.7905 46.7479 68.9631 44.932 69.624C41.4599 70.8877 38.5871 69.7858 36.6448 66.4709C35.7789 65.1163 35.1545 64.175 34.7742 63.6475C34.4289 63.1683 34.0132 62.7011 33.5343 62.2556C33.0702 61.8234 32.4185 61.376 31.6002 60.9268C30.7428 60.452 29.6305 59.9315 28.2976 59.384C23.3388 57.399 19.8164 55.9375 17.8303 55.0379C15.7824 54.1122 13.8203 52.816 11.9961 51.1891C10.1211 49.5257 8.66883 47.2933 7.67323 44.5579C6.41551 41.1023 6.21401 37.4993 7.07527 33.8523" fill="#EA3C05"/>
</g>
<defs>
<clipPath id="clip0_21_296">
<rect width="75" height="75" fill="white" transform="matrix(-0.939693 0.34202 0.34202 0.939693 70.4769 0)"/>
</clipPath>
</defs>
</svg>
