<svg width="53" height="45" viewBox="0 0 53 45" fill="none" xmlns="http://www.w3.org/2000/svg">
<g clip-path="url(#clip0_4_9)">
<path d="M8 22.6352C8.00127 28.0262 9.91356 33.24 13.3932 37.3394C16.8728 41.4388 21.6915 44.1551 26.9833 45V29.1778H21.275V22.6352H26.99V17.6546C26.8638 16.489 26.9943 15.3096 27.3721 14.2004C27.7499 13.0911 28.3659 12.0792 29.1762 11.2364C29.9865 10.3937 30.9713 9.74076 32.0606 9.32409C33.15 8.90743 34.3172 8.73721 35.4793 8.82553C37.1668 8.8527 38.8543 9.00438 40.5193 9.27831V14.8452H37.6753C37.1919 14.7815 36.7005 14.8279 36.2373 14.981C35.7742 15.1341 35.3511 15.3899 34.9995 15.7296C34.6478 16.0693 34.3765 16.4842 34.2057 16.9436C34.0348 17.4029 33.9687 17.8951 34.0122 18.3836V22.6352H40.247L39.2502 29.18H34.0122V45C38.2594 44.3247 42.2253 42.439 45.4404 39.5662C48.6554 36.6934 50.9851 32.9538 52.1534 28.7902C53.3218 24.6266 53.28 20.2134 52.0329 16.073C50.7859 11.9325 48.3858 8.23835 45.1168 5.42778C41.8479 2.61721 37.847 0.80795 33.5878 0.214214C29.3286 -0.379522 24.9896 0.267129 21.0843 2.07761C17.1791 3.88809 13.8712 6.78657 11.5523 10.4299C9.23344 14.0732 8.00068 18.3088 8 22.6352V22.6352Z" fill="#E5E5E5"/>
</g>
<defs>
<clipPath id="clip0_4_9">
<rect width="53" height="45" fill="white"/>
</clipPath>
</defs>
</svg>
