<svg width="50" height="51" viewBox="0 0 50 51" fill="none" xmlns="http://www.w3.org/2000/svg">
<path d="M25 19.1355C21.416 19.1355 18.4912 22.0603 18.4912 25.6443C18.4912 29.2283 21.416 32.1531 25 32.1531C28.584 32.1531 31.5088 29.2283 31.5088 25.6443C31.5088 22.0603 28.584 19.1355 25 19.1355ZM44.5215 25.6443C44.5215 22.949 44.5459 20.2781 44.3946 17.5876C44.2432 14.4626 43.5303 11.6892 41.2451 9.40404C38.9551 7.114 36.1865 6.40599 33.0615 6.25463C30.3662 6.10326 27.6953 6.12767 25.0049 6.12767C22.3096 6.12767 19.6387 6.10326 16.9483 6.25463C13.8233 6.40599 11.0498 7.11888 8.76467 9.40404C6.47463 11.6941 5.76662 14.4626 5.61525 17.5876C5.46389 20.2829 5.4883 22.9538 5.4883 25.6443C5.4883 28.3347 5.46389 31.0105 5.61525 33.7009C5.76662 36.8259 6.47951 39.5994 8.76467 41.8845C11.0547 44.1745 13.8233 44.8826 16.9483 45.0339C19.6436 45.1853 22.3145 45.1609 25.0049 45.1609C27.7002 45.1609 30.3711 45.1853 33.0615 45.0339C36.1865 44.8826 38.96 44.1697 41.2451 41.8845C43.5352 39.5945 44.2432 36.8259 44.3946 33.7009C44.5508 31.0105 44.5215 28.3396 44.5215 25.6443V25.6443ZM25 35.6589C19.458 35.6589 14.9854 31.1863 14.9854 25.6443C14.9854 20.1023 19.458 15.6296 25 15.6296C30.542 15.6296 35.0147 20.1023 35.0147 25.6443C35.0147 31.1863 30.542 35.6589 25 35.6589ZM35.4248 17.5583C34.1309 17.5583 33.086 16.5134 33.086 15.2195C33.086 13.9255 34.1309 12.8806 35.4248 12.8806C36.7188 12.8806 37.7637 13.9255 37.7637 15.2195C37.7641 15.5267 37.7038 15.831 37.5864 16.115C37.469 16.3989 37.2968 16.6569 37.0795 16.8742C36.8623 17.0914 36.6043 17.2637 36.3203 17.3811C36.0364 17.4985 35.7321 17.5587 35.4248 17.5583V17.5583Z" fill="#E5E5E5"/>
</svg>
