<svg width="60" height="60" viewBox="0 0 60 60" fill="none" xmlns="http://www.w3.org/2000/svg">
<path d="M5.00015 30C5.00015 33.283 5.6468 36.534 6.90316 39.5671C8.15953 42.6002 10.001 45.3562 12.3225 47.6777C14.6439 49.9991 17.3999 51.8406 20.4331 53.097C23.4662 54.3534 26.7171 55 30.0002 55C36.6306 55 42.9894 52.3661 47.6778 47.6777C52.3662 42.9893 55.0002 36.6304 55.0002 30C55.0002 26.717 54.3535 23.4661 53.0971 20.4329C51.8408 17.3998 49.9993 14.6438 47.6778 12.3223C42.9894 7.63392 36.6306 5 30.0002 5C23.3697 5 17.0109 7.63392 12.3225 12.3223C7.63407 17.0107 5.00015 23.3696 5.00015 30ZM25.0002 17.5L37.5002 30L25.0002 42.5L25.0002 17.5Z" fill="#F24E1E"/>
</svg>
