<svg width="50" height="51" viewBox="0 0 50 51" fill="none" xmlns="http://www.w3.org/2000/svg">
<path d="M41.6667 6.89429H8.33333C7.7808 6.89429 7.25089 7.11378 6.86019 7.50448C6.46949 7.89518 6.25 8.42509 6.25 8.97762V42.311C6.25 42.8635 6.46949 43.3934 6.86019 43.7841C7.25089 44.1748 7.7808 44.3943 8.33333 44.3943H41.6667C42.2192 44.3943 42.7491 44.1748 43.1398 43.7841C43.5305 43.3934 43.75 42.8635 43.75 42.311V8.97762C43.75 8.42509 43.5305 7.89518 43.1398 7.50448C42.7491 7.11378 42.2192 6.89429 41.6667 6.89429V6.89429ZM17.3729 38.8464H11.8062V20.9505H17.3729V38.8464ZM14.5896 18.5068C13.7343 18.5068 12.914 18.167 12.3092 17.5622C11.7044 16.9574 11.3646 16.1371 11.3646 15.2818C11.3646 14.4265 11.7044 13.6062 12.3092 13.0014C12.914 12.3966 13.7343 12.0568 14.5896 12.0568C15.4449 12.0568 16.2652 12.3966 16.87 13.0014C17.4748 13.6062 17.8146 14.4265 17.8146 15.2818C17.8146 16.1371 17.4748 16.9574 16.87 17.5622C16.2652 18.167 15.4449 18.5068 14.5896 18.5068V18.5068ZM38.2042 38.8464H32.6437V30.1443C32.6437 28.0693 32.6062 25.4005 29.7521 25.4005C26.8562 25.4005 26.4167 27.663 26.4167 29.9985V38.8485H20.8604V20.9526H26.1937V23.3985H26.2708C27.0104 21.9922 28.8271 20.5089 31.5292 20.5089C37.1625 20.5089 38.2021 24.213 38.2021 29.0339V38.8464H38.2042Z" fill="#E5E5E5"/>
</svg>
