<svg width="60" height="60" viewBox="0 0 60 60" fill="none" xmlns="http://www.w3.org/2000/svg">
<path d="M54.9998 30C54.9998 33.283 54.3532 36.534 53.0968 39.5671C51.8404 42.6002 49.999 45.3562 47.6775 47.6777C45.356 49.9991 42.6 51.8406 39.5669 53.097C36.5338 54.3534 33.2829 55 29.9998 55C23.3694 55 17.0106 52.3661 12.3221 47.6777C7.63374 42.9893 4.99982 36.6304 4.99982 30C4.99982 26.717 5.64646 23.4661 6.90282 20.4329C8.15919 17.3998 10.0007 14.6438 12.3221 12.3223C17.0106 7.63392 23.3694 5 29.9998 5C36.6302 5 42.9891 7.63392 47.6775 12.3223C52.3659 17.0107 54.9998 23.3696 54.9998 30ZM34.9998 17.5L22.4998 30L34.9998 42.5V17.5Z" fill="#F24E1E"/>
</svg>
