<svg width="45" height="42" viewBox="0 0 45 42" fill="none" xmlns="http://www.w3.org/2000/svg">
<path d="M18.75 31.1159C22.0781 31.1153 25.3103 30.0887 27.9319 28.1995L36.1744 35.7947L38.8256 33.3517L30.5831 25.7564C32.6344 23.3404 33.7492 20.3613 33.75 17.2938C33.75 9.67261 27.0206 3.47165 18.75 3.47165C10.4794 3.47165 3.75 9.67261 3.75 17.2938C3.75 24.915 10.4794 31.1159 18.75 31.1159ZM18.75 6.92719C24.9544 6.92719 30 11.5766 30 17.2938C30 23.011 24.9544 27.6604 18.75 27.6604C12.5456 27.6604 7.5 23.011 7.5 17.2938C7.5 11.5766 12.5456 6.92719 18.75 6.92719Z" fill="#F24E1E"/>
</svg>
