<svg width="70" height="70" viewBox="0 0 70 70" fill="none" xmlns="http://www.w3.org/2000/svg">
<path d="M35 64.1667C38.8302 64.1667 42.6229 63.4123 46.1616 61.9466C49.7002 60.4808 52.9156 58.3324 55.6239 55.624C58.3323 52.9157 60.4807 49.7003 61.9465 46.1617C63.4122 42.623 64.1666 38.8303 64.1666 35.0001C64.1666 27.2646 61.0937 19.8459 55.6239 14.3761C50.1541 8.90631 42.7355 5.83341 35 5.83341C31.1698 5.83341 27.377 6.58783 23.8384 8.05359C20.2997 9.51935 17.0844 11.6678 14.376 14.3761C8.90622 19.8459 5.83331 27.2646 5.83331 35.0001C5.83331 42.7356 8.90622 50.1542 14.376 55.624C19.8458 61.0938 27.2645 64.1667 35 64.1667ZM20.4166 40.8334L35 26.2501L49.5833 40.8334H20.4166Z" fill="#F24E1E"/>
</svg>
